<svg width="120" height="120" viewBox="0 0 120 120" fill="none" xmlns="http://www.w3.org/2000/svg">
<rect width="120" height="120" fill="#E5E5E5"/>
<g id="Desktop - 1" clip-path="url(#clip0_0_1)">
<rect width="1152" height="4725" transform="translate(-397 -2152)" fill="white"/>
<g id="Frame 12" clip-path="url(#clip1_0_1)">
<g id="Group 49">
<g id="Frame 3" clip-path="url(#clip2_0_1)">
<g id="Group 46">
<path id="2" d="M18.5068 111.84C20.0428 111.84 21.1948 112.192 21.9628 112.896C22.7948 113.6 23.2108 114.592 23.2108 115.872C23.2108 118.624 21.6428 120 18.5068 120H-18.5492C-19.9572 120 -21.0772 119.616 -21.9092 118.848C-22.6772 118.016 -23.0612 116.992 -23.0612 115.776C-23.0612 114.304 -22.4852 112.96 -21.3332 111.744L1.22675 87.072C4.23475 83.808 6.41075 80.832 7.75475 78.144C9.09875 75.456 9.77075 72.8 9.77075 70.176C9.77075 66.784 8.77875 64.192 6.79475 62.4C4.87475 60.544 2.12275 59.616 -1.46125 59.616C-6.90125 59.616 -12.3092 61.696 -17.6852 65.856C-18.3892 66.304 -18.9972 66.656 -19.5092 66.912C-19.9572 67.104 -20.4372 67.2 -20.9492 67.2C-21.8452 67.2 -22.6132 66.784 -23.2532 65.952C-23.8932 65.12 -24.2132 64.128 -24.2132 62.976C-24.2132 61.376 -23.5732 60.096 -22.2932 59.136C-19.6052 56.832 -16.3732 55.008 -12.5972 53.664C-8.82125 52.256 -5.01325 51.552 -1.17325 51.552C5.16275 51.552 10.1868 53.184 13.8988 56.448C17.6748 59.648 19.5627 64 19.5627 69.504C19.5627 73.408 18.6988 77.12 16.9708 80.64C15.3068 84.16 12.4908 88.096 8.52275 92.448L-9.62125 111.84H18.5068Z" fill="#F9BDBD" fill-opacity="0.25"/>
<g id="ruler 1">
<path id="Vector" d="M50.3226 94.8387V1.93549H27.0968V94.8387V98.7097V118.065H92.9033V94.8387H50.3226Z" fill="#F7DEA6"/>
<g id="Group">
<path id="Vector_2" d="M52.258 92.9032V0H25.1613V120H94.8387V92.9032H52.258ZM48.3871 3.87097V94.0374L34.7013 107.723L37.438 110.46L51.1238 96.7742H90.9677V104.516H52.258V116.129H31.769L34.2716 113.626L31.5348 110.89L29.0322 113.392V98.7097H42.5806V94.8387H29.0322V90.9677H34.8387V87.0968H29.0322V83.2258H42.5806V79.3548H29.0322V75.4839H34.8387V71.6129H29.0322V67.7419H42.5806V63.871H29.0322V60H34.8387V56.129H29.0322V52.2581H42.5806V48.3871H29.0322V44.5161H34.8387V40.6452H29.0322V36.7742H42.5806V32.9032H29.0322V29.0323H34.8387V25.1613H29.0322V3.87097H48.3871ZM63.8709 108.387H67.7419V116.129H63.8709V108.387ZM60 116.129H56.129V108.387H60V116.129ZM71.6129 108.387H75.4838V116.129H71.6129V108.387ZM79.3548 108.387H83.2258V116.129H79.3548V108.387ZM87.0967 116.129V108.387H90.9677V116.129H87.0967Z" fill="#333333"/>
<path id="Vector_3" d="M38.7097 19.3548C41.9109 19.3548 44.5161 16.7497 44.5161 13.5484C44.5161 10.3471 41.9109 7.74194 38.7097 7.74194C35.5084 7.74194 32.9032 10.3471 32.9032 13.5484C32.9032 16.7497 35.5084 19.3548 38.7097 19.3548ZM38.7097 11.6129C39.778 11.6129 40.6451 12.48 40.6451 13.5484C40.6451 14.6168 39.778 15.4839 38.7097 15.4839C37.6413 15.4839 36.7742 14.6168 36.7742 13.5484C36.7742 12.48 37.6413 11.6129 38.7097 11.6129Z" fill="#333333"/>
</g>
</g>
</g>
</g>
</g>
</g>
</g>
<defs>
<clipPath id="clip0_0_1">
<rect width="1152" height="4725" fill="white" transform="translate(-397 -2152)"/>
</clipPath>
<clipPath id="clip1_0_1">
<rect width="1152" height="4725" fill="white" transform="translate(-397 -2152)"/>
</clipPath>
<clipPath id="clip2_0_1">
<rect width="952" height="177" fill="white" transform="translate(-297)"/>
</clipPath>
</defs>
</svg>
